# xmcd CD database file
#
# Track frame offsets:
#	150
#	12795
#	28580
#	46625
#	61425
#	79855
#	94550
#	110530
#	126870
#	144570
#	155160
#	168557
#	185807
#	197370
#	215500
#
# Disc length: 3226 seconds
#
# Revision: 0
# Processed by: cddbd v1.5PL3 Copyright (c) Steve Scherf et al.
# Submitted via: CDex 1.51
#
DISCID=cb0c980f
DTITLE=Raaka Arska - Rakkauden Robin Hood
DYEAR=1997
DGENRE=New Age
TTITLE0=Rakkauden Robin Hood
TTITLE1=Sunnuntai
TTITLE2=Corolla, Cossua Ja Tupakkaa
TTITLE3=Barbara
TTITLE4=Korjaussarja
TTITLE5=Steppihullu
TTITLE6=K‰Enpes‰
TTITLE7=Urku Auki
TTITLE8=Alla Lempe‰n auringon
TTITLE9=Lasinen Laulukirja
TTITLE10=Rokaten Ja Rollaten
TTITLE11=Harmaata Rauhaa
TTITLE12=Kaupparatsu
TTITLE13=Vihtahousu
TTITLE14=Naisten Superpesis
EXTD=YEAR: 1997
EXTT0=
EXTT1=
EXTT2=
EXTT3=
EXTT4=
EXTT5=
EXTT6=
EXTT7=
EXTT8=
EXTT9=
EXTT10=
EXTT11=
EXTT12=
EXTT13=
EXTT14=
PLAYORDER=
